# xmcd
#
# Track frame offsets: 
#        150
#        21967
#        40384
#        57830
#        77011
#        91450
#        114236
#        134853
#        157272
#        172606
#        189682
#
# Disc length: 2812 seconds
#
# Revision: 0
# Processed by: cddbd v1.5.2PL0 Copyright (c) Steve Scherf et al.
# Submitted via: ExactAudioCopyFreeDBPlugin 1.0
#
DISCID=910afa0b
DTITLE=Orchestre Poly-Rythmo - Cotonou Club
DYEAR=2011
DGENRE=Afro-Pop
TTITLE0=Ne Te Fâche Pas
TTITLE1=Pardon
TTITLE2=Von Vo Nono
TTITLE3=Koumi Dédé
TTITLE4=Orchestre Poly-Rythmo feat Angélique Kidjo - Gbeti Madjro
TTITLE5=Ocè
TTITLE6=Tegbé
TTITLE7=Orchestre Poly-Rythmo feat Fatoumata Diawara - Mariage and C'est
TTITLE7=Lui ou C'est Moi
TTITLE8=Holonon
TTITLE9=Ma Vie
TTITLE10=Orchestre Poly-Rythmo feat Paul Thomson and Nick Mccarthy From 
TTITLE10=Franz Ferdinand - Lion Is Burning 
EXTD=
EXTT0=
EXTT1=
EXTT2=
EXTT3=
EXTT4=
EXTT5=
EXTT6=
EXTT7=
EXTT8=
EXTT9=
EXTT10=
PLAYORDER=
